<svg xmlns="http://www.w3.org/2000/svg" version="1.1" width="1024" height="1024">
  <svg width="1024" height="1024" viewBox="0 0 1024 1024" fill="none" xmlns="http://www.w3.org/2000/svg">
    <rect width="1024" height="1024" rx="188" fill="#FDC300"></rect>
    <path d="M889.581 365.789C889.548 366.125 889.483 366.449 889.437 366.781C889.372 367.26 889.314 367.739 889.22 368.215C889.142 368.607 889.034 368.986 888.937 369.372C888.835 369.78 888.744 370.19 888.622 370.594C888.507 370.972 888.365 371.336 888.233 371.706C888.091 372.11 887.956 372.514 887.793 372.912C887.652 373.249 887.487 373.573 887.332 373.903C887.139 374.317 886.954 374.733 886.737 375.137C886.575 375.441 886.388 375.729 886.214 376.024C885.974 376.432 885.741 376.844 885.475 377.24C885.267 377.549 885.034 377.84 884.814 378.138C884.551 378.498 884.3 378.862 884.014 379.209C883.65 379.651 883.256 380.066 882.863 380.482C882.693 380.664 882.543 380.856 882.366 381.033L757.033 506.366C752.331 511.068 745.955 513.709 739.307 513.709C732.658 513.709 726.282 511.068 721.581 506.366C716.879 501.665 714.238 495.289 714.238 488.64C714.238 481.992 716.879 475.616 721.581 470.914L804.124 388.374H664.107C630.878 388.412 599.021 401.629 575.524 425.125C552.028 448.621 538.811 480.478 538.773 513.707C538.721 560.228 520.218 604.828 487.323 637.723C454.428 670.618 409.827 689.121 363.307 689.174H360.464C354.301 716.213 338.393 740.034 315.78 756.087C293.166 772.14 265.431 779.3 237.872 776.2C210.313 773.099 184.863 759.954 166.382 739.277C147.901 718.6 137.684 691.839 137.684 664.107C137.684 636.374 147.901 609.614 166.382 588.937C184.863 568.259 210.313 555.115 237.872 552.014C265.431 548.913 293.166 556.073 315.78 572.127C338.393 588.18 354.301 612.001 360.464 639.04H363.307C396.535 639.002 428.392 625.785 451.889 602.289C475.385 578.793 488.602 546.936 488.64 513.707C488.692 467.186 507.195 422.586 540.09 389.691C572.986 356.796 617.586 338.292 664.107 338.24H804.124L721.581 255.7C716.879 250.998 714.238 244.622 714.238 237.974C714.238 231.325 716.879 224.949 721.581 220.248C726.282 215.546 732.658 212.905 739.307 212.905C745.955 212.905 752.331 215.546 757.033 220.248L882.366 345.581C882.543 345.758 882.693 345.95 882.863 346.132C883.256 346.548 883.65 346.962 884.014 347.405C884.3 347.752 884.551 348.116 884.814 348.476C885.034 348.774 885.267 349.065 885.475 349.374C885.741 349.77 885.973 350.182 886.214 350.59C886.388 350.885 886.575 351.173 886.737 351.477C886.954 351.881 887.139 352.297 887.332 352.71C887.487 353.041 887.652 353.365 887.793 353.702C887.956 354.1 888.091 354.504 888.233 354.908C888.365 355.278 888.507 355.642 888.622 356.02C888.744 356.424 888.834 356.834 888.937 357.242C889.033 357.628 889.142 358.007 889.22 358.399C889.313 358.875 889.372 359.354 889.437 359.832C889.483 360.165 889.548 360.489 889.581 360.825C889.745 362.476 889.745 364.138 889.581 365.789Z"
          fill="#1E1E1E"></path>
  </svg>
  <style>@media (prefers-color-scheme: light) { :root { filter: none; } }
    @media (prefers-color-scheme: dark) { :root { filter: none; } }
  </style>
</svg>
