<svg xmlns="http://www.w3.org/2000/svg" width="16" height="16" viewBox="0 0 24 24" fill="none">
  <path fill-rule="evenodd" clip-rule="evenodd" d="M12.4762 4C9.32028 4 6.7619 6.52827 6.7619 9.64706C6.7619 10.3369 6.88706 10.9978 7.11616 11.6089C6.8475 11.5567 6.56983 11.5294 6.28571 11.5294C3.91878 11.5294 2 13.4256 2 15.7647C2 18.1038 3.91878 20 6.28571 20H16.2857C19.4416 20 22 17.4717 22 14.3529C22 11.8811 20.393 9.78024 18.1551 9.01498C18.1216 8.71822 18.0649 8.42841 17.9868 8.14736C17.9721 8.09441 17.9566 8.04178 17.9403 7.98948C17.2237 5.67956 15.0484 4 12.4762 4Z" fill="currentColor"/>
</svg>
